<mxfile host="app.diagrams.net" modified="2024-06-17T03:17:13.792Z" agent="Mozilla/5.0 (Windows NT 10.0; Win64; x64) AppleWebKit/537.36 (KHTML, like Gecko) Chrome/109.0.0.0 Safari/537.36" etag="0nUTs2QJfVOuZjbuUXy-" version="24.5.4" type="github">
  <diagram name="Page-1" id="-1cZVmVz_OittR7CNGFL">
    <mxGraphModel dx="1434" dy="764" grid="1" gridSize="10" guides="1" tooltips="1" connect="1" arrows="1" fold="1" page="1" pageScale="1" pageWidth="850" pageHeight="1100" math="0" shadow="0">
      <root>
        <mxCell id="0" />
        <mxCell id="1" parent="0" />
        <mxCell id="F20PGNAOctXAQbHwgQu4-1" value="&lt;&lt;Client&gt;&gt;&#xa;SmartPerson" style="swimlane;fontStyle=1;align=center;verticalAlign=top;childLayout=stackLayout;horizontal=1;startSize=48;horizontalStack=0;resizeParent=1;resizeParentMax=0;resizeLast=0;collapsible=0;marginBottom=0;" vertex="1" parent="1">
          <mxGeometry x="342" y="130" width="173" height="88" as="geometry" />
        </mxCell>
        <mxCell id="F20PGNAOctXAQbHwgQu4-2" style="line;strokeWidth=1;fillColor=none;align=left;verticalAlign=middle;spacingTop=-1;spacingLeft=3;spacingRight=3;rotatable=0;labelPosition=right;points=[];portConstraint=eastwest;strokeColor=inherit;" vertex="1" parent="F20PGNAOctXAQbHwgQu4-1">
          <mxGeometry y="48" width="173" height="8" as="geometry" />
        </mxCell>
        <mxCell id="F20PGNAOctXAQbHwgQu4-3" value="+void myMovieSetup()" style="text;strokeColor=none;fillColor=none;align=left;verticalAlign=top;spacingLeft=4;spacingRight=4;overflow=hidden;rotatable=0;points=[[0,0.5],[1,0.5]];portConstraint=eastwest;" vertex="1" parent="F20PGNAOctXAQbHwgQu4-1">
          <mxGeometry y="56" width="173" height="32" as="geometry" />
        </mxCell>
        <mxCell id="F20PGNAOctXAQbHwgQu4-4" value="&lt;&lt;SubSystem&gt;&gt;&#xa;SmartTV" style="swimlane;fontStyle=1;align=center;verticalAlign=top;childLayout=stackLayout;horizontal=1;startSize=42.599999999999994;horizontalStack=0;resizeParent=1;resizeParentMax=0;resizeLast=0;collapsible=0;marginBottom=0;" vertex="1" parent="1">
          <mxGeometry x="642" y="487.74" width="143" height="134.6" as="geometry" />
        </mxCell>
        <mxCell id="F20PGNAOctXAQbHwgQu4-5" style="line;strokeWidth=1;fillColor=none;align=left;verticalAlign=middle;spacingTop=-1;spacingLeft=3;spacingRight=3;rotatable=0;labelPosition=right;points=[];portConstraint=eastwest;strokeColor=inherit;" vertex="1" parent="F20PGNAOctXAQbHwgQu4-4">
          <mxGeometry y="42.599999999999994" width="143" height="8" as="geometry" />
        </mxCell>
        <mxCell id="F20PGNAOctXAQbHwgQu4-6" value="+void on()" style="text;strokeColor=none;fillColor=none;align=left;verticalAlign=top;spacingLeft=4;spacingRight=4;overflow=hidden;rotatable=0;points=[[0,0.5],[1,0.5]];portConstraint=eastwest;" vertex="1" parent="F20PGNAOctXAQbHwgQu4-4">
          <mxGeometry y="50.599999999999994" width="143" height="28" as="geometry" />
        </mxCell>
        <mxCell id="F20PGNAOctXAQbHwgQu4-7" value="+void off()" style="text;strokeColor=none;fillColor=none;align=left;verticalAlign=top;spacingLeft=4;spacingRight=4;overflow=hidden;rotatable=0;points=[[0,0.5],[1,0.5]];portConstraint=eastwest;" vertex="1" parent="F20PGNAOctXAQbHwgQu4-4">
          <mxGeometry y="78.6" width="143" height="28" as="geometry" />
        </mxCell>
        <mxCell id="F20PGNAOctXAQbHwgQu4-8" value="+void playmovie()" style="text;strokeColor=none;fillColor=none;align=left;verticalAlign=top;spacingLeft=4;spacingRight=4;overflow=hidden;rotatable=0;points=[[0,0.5],[1,0.5]];portConstraint=eastwest;" vertex="1" parent="F20PGNAOctXAQbHwgQu4-4">
          <mxGeometry y="106.6" width="143" height="28" as="geometry" />
        </mxCell>
        <mxCell id="F20PGNAOctXAQbHwgQu4-9" value="&lt;&lt;SubSystem&gt;&gt;&#xa;SmartAC" style="swimlane;fontStyle=1;align=center;verticalAlign=top;childLayout=stackLayout;horizontal=1;startSize=44.625;horizontalStack=0;resizeParent=1;resizeParentMax=0;resizeLast=0;collapsible=0;marginBottom=0;" vertex="1" parent="1">
          <mxGeometry x="130" y="476" width="108" height="112.625" as="geometry" />
        </mxCell>
        <mxCell id="F20PGNAOctXAQbHwgQu4-10" style="line;strokeWidth=1;fillColor=none;align=left;verticalAlign=middle;spacingTop=-1;spacingLeft=3;spacingRight=3;rotatable=0;labelPosition=right;points=[];portConstraint=eastwest;strokeColor=inherit;" vertex="1" parent="F20PGNAOctXAQbHwgQu4-9">
          <mxGeometry y="44.625" width="108" height="8" as="geometry" />
        </mxCell>
        <mxCell id="F20PGNAOctXAQbHwgQu4-11" value="+void on()" style="text;strokeColor=none;fillColor=none;align=left;verticalAlign=top;spacingLeft=4;spacingRight=4;overflow=hidden;rotatable=0;points=[[0,0.5],[1,0.5]];portConstraint=eastwest;" vertex="1" parent="F20PGNAOctXAQbHwgQu4-9">
          <mxGeometry y="52.625" width="108" height="30" as="geometry" />
        </mxCell>
        <mxCell id="F20PGNAOctXAQbHwgQu4-12" value="+void off()" style="text;strokeColor=none;fillColor=none;align=left;verticalAlign=top;spacingLeft=4;spacingRight=4;overflow=hidden;rotatable=0;points=[[0,0.5],[1,0.5]];portConstraint=eastwest;" vertex="1" parent="F20PGNAOctXAQbHwgQu4-9">
          <mxGeometry y="82.625" width="108" height="30" as="geometry" />
        </mxCell>
        <mxCell id="F20PGNAOctXAQbHwgQu4-13" value="PatternTest" style="swimlane;fontStyle=1;align=center;verticalAlign=top;childLayout=stackLayout;horizontal=1;startSize=29.2;horizontalStack=0;resizeParent=1;resizeParentMax=0;resizeLast=0;collapsible=0;marginBottom=0;" vertex="1" parent="1">
          <mxGeometry x="670" y="140.9" width="158" height="66.2" as="geometry" />
        </mxCell>
        <mxCell id="F20PGNAOctXAQbHwgQu4-14" style="line;strokeWidth=1;fillColor=none;align=left;verticalAlign=middle;spacingTop=-1;spacingLeft=3;spacingRight=3;rotatable=0;labelPosition=right;points=[];portConstraint=eastwest;strokeColor=inherit;" vertex="1" parent="F20PGNAOctXAQbHwgQu4-13">
          <mxGeometry y="29.2" width="158" height="8" as="geometry" />
        </mxCell>
        <mxCell id="F20PGNAOctXAQbHwgQu4-15" value="+void main(String[])" style="text;strokeColor=none;fillColor=none;align=left;verticalAlign=top;spacingLeft=4;spacingRight=4;overflow=hidden;rotatable=0;points=[[0,0.5],[1,0.5]];portConstraint=eastwest;" vertex="1" parent="F20PGNAOctXAQbHwgQu4-13">
          <mxGeometry y="37.2" width="158" height="29" as="geometry" />
        </mxCell>
        <mxCell id="F20PGNAOctXAQbHwgQu4-16" value="&lt;&lt;Facade&gt;&gt;&#xa;SmartHomeSystem" style="swimlane;fontStyle=1;align=center;verticalAlign=top;childLayout=stackLayout;horizontal=1;startSize=48;horizontalStack=0;resizeParent=1;resizeParentMax=0;resizeLast=0;collapsible=0;marginBottom=0;" vertex="1" parent="1">
          <mxGeometry x="333" y="303" width="191" height="88" as="geometry" />
        </mxCell>
        <mxCell id="F20PGNAOctXAQbHwgQu4-17" style="line;strokeWidth=1;fillColor=none;align=left;verticalAlign=middle;spacingTop=-1;spacingLeft=3;spacingRight=3;rotatable=0;labelPosition=right;points=[];portConstraint=eastwest;strokeColor=inherit;" vertex="1" parent="F20PGNAOctXAQbHwgQu4-16">
          <mxGeometry y="48" width="191" height="8" as="geometry" />
        </mxCell>
        <mxCell id="F20PGNAOctXAQbHwgQu4-18" value="+void movieNightSetup()" style="text;strokeColor=none;fillColor=none;align=left;verticalAlign=top;spacingLeft=4;spacingRight=4;overflow=hidden;rotatable=0;points=[[0,0.5],[1,0.5]];portConstraint=eastwest;" vertex="1" parent="F20PGNAOctXAQbHwgQu4-16">
          <mxGeometry y="56" width="191" height="32" as="geometry" />
        </mxCell>
        <mxCell id="F20PGNAOctXAQbHwgQu4-19" value="&lt;&lt;SubSystem&gt;&gt;&#xa;SmartSpeaker" style="swimlane;fontStyle=1;align=center;verticalAlign=top;childLayout=stackLayout;horizontal=1;startSize=42.599999999999994;horizontalStack=0;resizeParent=1;resizeParentMax=0;resizeLast=0;collapsible=0;marginBottom=0;" vertex="1" parent="1">
          <mxGeometry x="835" y="487.74" width="180" height="134.6" as="geometry" />
        </mxCell>
        <mxCell id="F20PGNAOctXAQbHwgQu4-20" style="line;strokeWidth=1;fillColor=none;align=left;verticalAlign=middle;spacingTop=-1;spacingLeft=3;spacingRight=3;rotatable=0;labelPosition=right;points=[];portConstraint=eastwest;strokeColor=inherit;" vertex="1" parent="F20PGNAOctXAQbHwgQu4-19">
          <mxGeometry y="42.599999999999994" width="180" height="8" as="geometry" />
        </mxCell>
        <mxCell id="F20PGNAOctXAQbHwgQu4-21" value="+void highVolume()" style="text;strokeColor=none;fillColor=none;align=left;verticalAlign=top;spacingLeft=4;spacingRight=4;overflow=hidden;rotatable=0;points=[[0,0.5],[1,0.5]];portConstraint=eastwest;" vertex="1" parent="F20PGNAOctXAQbHwgQu4-19">
          <mxGeometry y="50.599999999999994" width="180" height="28" as="geometry" />
        </mxCell>
        <mxCell id="F20PGNAOctXAQbHwgQu4-22" value="+void mediumVolume()" style="text;strokeColor=none;fillColor=none;align=left;verticalAlign=top;spacingLeft=4;spacingRight=4;overflow=hidden;rotatable=0;points=[[0,0.5],[1,0.5]];portConstraint=eastwest;" vertex="1" parent="F20PGNAOctXAQbHwgQu4-19">
          <mxGeometry y="78.6" width="180" height="28" as="geometry" />
        </mxCell>
        <mxCell id="F20PGNAOctXAQbHwgQu4-23" value="+void lowVolume()" style="text;strokeColor=none;fillColor=none;align=left;verticalAlign=top;spacingLeft=4;spacingRight=4;overflow=hidden;rotatable=0;points=[[0,0.5],[1,0.5]];portConstraint=eastwest;" vertex="1" parent="F20PGNAOctXAQbHwgQu4-19">
          <mxGeometry y="106.6" width="180" height="28" as="geometry" />
        </mxCell>
        <mxCell id="F20PGNAOctXAQbHwgQu4-24" value="&lt;&lt;SubSystem&gt;&gt;&#xa;SmartWindow" style="swimlane;fontStyle=1;align=center;verticalAlign=top;childLayout=stackLayout;horizontal=1;startSize=44.625;horizontalStack=0;resizeParent=1;resizeParentMax=0;resizeLast=0;collapsible=0;marginBottom=0;" vertex="1" parent="1">
          <mxGeometry x="288" y="476" width="118" height="112.625" as="geometry" />
        </mxCell>
        <mxCell id="F20PGNAOctXAQbHwgQu4-25" style="line;strokeWidth=1;fillColor=none;align=left;verticalAlign=middle;spacingTop=-1;spacingLeft=3;spacingRight=3;rotatable=0;labelPosition=right;points=[];portConstraint=eastwest;strokeColor=inherit;" vertex="1" parent="F20PGNAOctXAQbHwgQu4-24">
          <mxGeometry y="44.625" width="118" height="8" as="geometry" />
        </mxCell>
        <mxCell id="F20PGNAOctXAQbHwgQu4-26" value="+void close()" style="text;strokeColor=none;fillColor=none;align=left;verticalAlign=top;spacingLeft=4;spacingRight=4;overflow=hidden;rotatable=0;points=[[0,0.5],[1,0.5]];portConstraint=eastwest;" vertex="1" parent="F20PGNAOctXAQbHwgQu4-24">
          <mxGeometry y="52.625" width="118" height="30" as="geometry" />
        </mxCell>
        <mxCell id="F20PGNAOctXAQbHwgQu4-27" value="+void open()" style="text;strokeColor=none;fillColor=none;align=left;verticalAlign=top;spacingLeft=4;spacingRight=4;overflow=hidden;rotatable=0;points=[[0,0.5],[1,0.5]];portConstraint=eastwest;" vertex="1" parent="F20PGNAOctXAQbHwgQu4-24">
          <mxGeometry y="82.625" width="118" height="30" as="geometry" />
        </mxCell>
        <mxCell id="F20PGNAOctXAQbHwgQu4-28" value="&lt;&lt;SubSystem&gt;&gt;&#xa;SmartLight" style="swimlane;fontStyle=1;align=center;verticalAlign=top;childLayout=stackLayout;horizontal=1;startSize=44.625;horizontalStack=0;resizeParent=1;resizeParentMax=0;resizeLast=0;collapsible=0;marginBottom=0;" vertex="1" parent="1">
          <mxGeometry x="456" y="476" width="108" height="112.625" as="geometry" />
        </mxCell>
        <mxCell id="F20PGNAOctXAQbHwgQu4-29" style="line;strokeWidth=1;fillColor=none;align=left;verticalAlign=middle;spacingTop=-1;spacingLeft=3;spacingRight=3;rotatable=0;labelPosition=right;points=[];portConstraint=eastwest;strokeColor=inherit;" vertex="1" parent="F20PGNAOctXAQbHwgQu4-28">
          <mxGeometry y="44.625" width="108" height="8" as="geometry" />
        </mxCell>
        <mxCell id="F20PGNAOctXAQbHwgQu4-30" value="+void on()" style="text;strokeColor=none;fillColor=none;align=left;verticalAlign=top;spacingLeft=4;spacingRight=4;overflow=hidden;rotatable=0;points=[[0,0.5],[1,0.5]];portConstraint=eastwest;" vertex="1" parent="F20PGNAOctXAQbHwgQu4-28">
          <mxGeometry y="52.625" width="108" height="30" as="geometry" />
        </mxCell>
        <mxCell id="F20PGNAOctXAQbHwgQu4-31" value="+void off()" style="text;strokeColor=none;fillColor=none;align=left;verticalAlign=top;spacingLeft=4;spacingRight=4;overflow=hidden;rotatable=0;points=[[0,0.5],[1,0.5]];portConstraint=eastwest;" vertex="1" parent="F20PGNAOctXAQbHwgQu4-28">
          <mxGeometry y="82.625" width="108" height="30" as="geometry" />
        </mxCell>
        <mxCell id="F20PGNAOctXAQbHwgQu4-32" value="&lt;&lt;AdditionalFacade&gt;&gt;&#xa;&lt;&lt;Optional&gt;&gt;&#xa;SmartMovieSystem" style="swimlane;fontStyle=1;align=center;verticalAlign=top;childLayout=stackLayout;horizontal=1;startSize=54.857142857142854;horizontalStack=0;resizeParent=1;resizeParentMax=0;resizeLast=0;collapsible=0;marginBottom=0;" vertex="1" parent="1">
          <mxGeometry x="627.5" y="301.14" width="172" height="89.85714285714286" as="geometry" />
        </mxCell>
        <mxCell id="F20PGNAOctXAQbHwgQu4-33" style="line;strokeWidth=1;fillColor=none;align=left;verticalAlign=middle;spacingTop=-1;spacingLeft=3;spacingRight=3;rotatable=0;labelPosition=right;points=[];portConstraint=eastwest;strokeColor=inherit;" vertex="1" parent="F20PGNAOctXAQbHwgQu4-32">
          <mxGeometry y="54.857142857142854" width="172" height="8" as="geometry" />
        </mxCell>
        <mxCell id="F20PGNAOctXAQbHwgQu4-34" value="+void movieTVSetup()" style="text;strokeColor=none;fillColor=none;align=left;verticalAlign=top;spacingLeft=4;spacingRight=4;overflow=hidden;rotatable=0;points=[[0,0.5],[1,0.5]];portConstraint=eastwest;" vertex="1" parent="F20PGNAOctXAQbHwgQu4-32">
          <mxGeometry y="62.857142857142854" width="172" height="27" as="geometry" />
        </mxCell>
        <mxCell id="F20PGNAOctXAQbHwgQu4-35" value="Facade Design pattern" style="align=center;spacingLeft=4;" vertex="1" parent="1">
          <mxGeometry x="330" y="40" width="510" height="34" as="geometry" />
        </mxCell>
        <mxCell id="F20PGNAOctXAQbHwgQu4-36" value="light" style="curved=1;startArrow=none;endArrow=open;endSize=12;exitX=0.75;exitY=1;entryX=0.5;entryY=0;rounded=0;" edge="1" parent="1" source="F20PGNAOctXAQbHwgQu4-16" target="F20PGNAOctXAQbHwgQu4-28">
          <mxGeometry relative="1" as="geometry">
            <Array as="points">
              <mxPoint x="510" y="442" />
            </Array>
          </mxGeometry>
        </mxCell>
        <mxCell id="F20PGNAOctXAQbHwgQu4-37" value="1" style="edgeLabel;resizable=0;labelBackgroundColor=none;fontSize=12;align=left;verticalAlign=bottom;" vertex="1" parent="F20PGNAOctXAQbHwgQu4-36">
          <mxGeometry x="1" relative="1" as="geometry" />
        </mxCell>
        <mxCell id="F20PGNAOctXAQbHwgQu4-38" value="window" style="curved=1;startArrow=none;endArrow=open;endSize=12;exitX=0.24;exitY=1;entryX=0.5;entryY=0;rounded=0;" edge="1" parent="1" source="F20PGNAOctXAQbHwgQu4-16" target="F20PGNAOctXAQbHwgQu4-24">
          <mxGeometry relative="1" as="geometry">
            <Array as="points">
              <mxPoint x="347" y="442" />
            </Array>
          </mxGeometry>
        </mxCell>
        <mxCell id="F20PGNAOctXAQbHwgQu4-39" value="1" style="edgeLabel;resizable=0;labelBackgroundColor=none;fontSize=12;align=left;verticalAlign=bottom;" vertex="1" parent="F20PGNAOctXAQbHwgQu4-38">
          <mxGeometry x="1" relative="1" as="geometry" />
        </mxCell>
        <mxCell id="F20PGNAOctXAQbHwgQu4-40" value="ac" style="curved=1;startArrow=none;endArrow=open;endSize=12;exitX=0;exitY=0.83;entryX=0.5;entryY=0;rounded=0;" edge="1" parent="1" source="F20PGNAOctXAQbHwgQu4-16" target="F20PGNAOctXAQbHwgQu4-9">
          <mxGeometry relative="1" as="geometry">
            <Array as="points">
              <mxPoint x="184" y="442" />
            </Array>
          </mxGeometry>
        </mxCell>
        <mxCell id="F20PGNAOctXAQbHwgQu4-41" value="1" style="edgeLabel;resizable=0;labelBackgroundColor=none;fontSize=12;align=left;verticalAlign=bottom;" vertex="1" parent="F20PGNAOctXAQbHwgQu4-40">
          <mxGeometry x="1" relative="1" as="geometry" />
        </mxCell>
        <mxCell id="F20PGNAOctXAQbHwgQu4-42" value="moviesys" style="curved=1;startArrow=none;endArrow=open;endSize=12;exitX=1;exitY=0.5;entryX=0;entryY=0.5;rounded=0;entryDx=0;entryDy=0;exitDx=0;exitDy=0;" edge="1" parent="1" source="F20PGNAOctXAQbHwgQu4-16" target="F20PGNAOctXAQbHwgQu4-32">
          <mxGeometry x="0.085" y="16" relative="1" as="geometry">
            <Array as="points" />
            <mxPoint x="580" y="180.0000000000001" as="sourcePoint" />
            <mxPoint as="offset" />
          </mxGeometry>
        </mxCell>
        <mxCell id="F20PGNAOctXAQbHwgQu4-43" value="1" style="edgeLabel;resizable=0;labelBackgroundColor=none;fontSize=12;align=right;verticalAlign=bottom;" vertex="1" parent="F20PGNAOctXAQbHwgQu4-42">
          <mxGeometry x="1" relative="1" as="geometry" />
        </mxCell>
        <mxCell id="F20PGNAOctXAQbHwgQu4-44" value="tv" style="curved=1;startArrow=none;endArrow=open;endSize=12;exitX=0.5;exitY=1;entryX=0.5;entryY=0;rounded=0;" edge="1" parent="1" source="F20PGNAOctXAQbHwgQu4-32" target="F20PGNAOctXAQbHwgQu4-4">
          <mxGeometry relative="1" as="geometry">
            <Array as="points" />
          </mxGeometry>
        </mxCell>
        <mxCell id="F20PGNAOctXAQbHwgQu4-45" value="1" style="edgeLabel;resizable=0;labelBackgroundColor=none;fontSize=12;align=left;verticalAlign=bottom;" vertex="1" parent="F20PGNAOctXAQbHwgQu4-44">
          <mxGeometry x="1" relative="1" as="geometry" />
        </mxCell>
        <mxCell id="F20PGNAOctXAQbHwgQu4-46" value="speaker" style="curved=1;startArrow=none;endArrow=open;endSize=12;exitX=1;exitY=0.88;entryX=0.5;entryY=0;rounded=0;" edge="1" parent="1" source="F20PGNAOctXAQbHwgQu4-32" target="F20PGNAOctXAQbHwgQu4-19">
          <mxGeometry relative="1" as="geometry">
            <Array as="points">
              <mxPoint x="925" y="453.74" />
            </Array>
          </mxGeometry>
        </mxCell>
        <mxCell id="F20PGNAOctXAQbHwgQu4-47" value="1" style="edgeLabel;resizable=0;labelBackgroundColor=none;fontSize=12;align=right;verticalAlign=bottom;" vertex="1" parent="F20PGNAOctXAQbHwgQu4-46">
          <mxGeometry x="1" relative="1" as="geometry" />
        </mxCell>
        <mxCell id="F20PGNAOctXAQbHwgQu4-48" value="homeSystem" style="curved=1;startArrow=none;endArrow=open;endSize=12;exitX=0.5;exitY=1;entryX=0.5;entryY=0;rounded=0;" edge="1" parent="1" source="F20PGNAOctXAQbHwgQu4-1" target="F20PGNAOctXAQbHwgQu4-16">
          <mxGeometry relative="1" as="geometry">
            <Array as="points" />
          </mxGeometry>
        </mxCell>
        <mxCell id="F20PGNAOctXAQbHwgQu4-49" value="1" style="edgeLabel;resizable=0;labelBackgroundColor=none;fontSize=12;align=left;verticalAlign=bottom;" vertex="1" parent="F20PGNAOctXAQbHwgQu4-48">
          <mxGeometry x="1" relative="1" as="geometry" />
        </mxCell>
      </root>
    </mxGraphModel>
  </diagram>
</mxfile>
